# xmcd
#
# Track frame offsets:
#	150
#	15582
#	31732
#	46540
#	58951
#	84257
#	96505
#	123906
#	139581
#	154508
#	168866
#	186847
#	199234
#	227033
#
# Disc length: 4536 seconds
#
# Revision: 2
# Processed by: cddbd v1.5.1PL0 Copyright (c) Steve Scherf et al.
# Submitted via: dBpowerAMP V4.0
#
DISCID=a811b60e
DTITLE=Reckless Kelly - Wicked Twisted Road
DYEAR=2005
DGENRE=Southern Rock
TTITLE0=Wicked Twisted Road
TTITLE1=Dogtown
TTITLE2=Seven Nights In Eire
TTITLE3=A Lot To Ask
TTITLE4=Motel Cowboy Show
TTITLE5=These Tears
TTITLE6=Sixgun
TTITLE7=Nobody Haunts Me Like You
TTITLE8=Wretched Again
TTITLE9=Broken Heart
TTITLE10=Stick Around
TTITLE11=Baby's Got A Whole Lot More
TTITLE12=Wicked Twisted Road (reprise)
TTITLE13=DATA
EXTD=
EXTT0=
EXTT1=
EXTT2=
EXTT3=
EXTT4=
EXTT5=
EXTT6=
EXTT7=
EXTT8=
EXTT9=
EXTT10=
EXTT11=
EXTT12=
EXTT13=
PLAYORDER=
